<?xml version="1.0" standalone="no"?>
<!DOCTYPE svg PUBLIC "-//W3C//DTD SVG 20010904//EN"
 "http://www.w3.org/TR/2001/REC-SVG-20010904/DTD/svg10.dtd">
<svg version="1.0" xmlns="http://www.w3.org/2000/svg"
 width="64.000000pt" height="64.000000pt" viewBox="0 0 64.000000 64.000000"
 preserveAspectRatio="xMidYMid meet">

<g transform="translate(0.000000,64.000000) scale(0.100000,-0.100000)"
fill="#4a332d" stroke="none">
<path d="M147 492 c-14 -16 -17 -43 -17 -174 0 -137 2 -157 18 -171 16 -14 43
-17 170 -17 202 0 192 -10 192 193 0 136 -2 156 -18 170 -16 14 -43 17 -174
17 -137 0 -157 -2 -171 -18z m261 -104 c4 -21 -83 -158 -100 -158 -19 0 -78
62 -78 82 0 26 27 34 49 14 10 -9 20 -16 23 -16 3 0 19 23 37 51 32 51 62 63
69 27z"/>
</g>
</svg>
