<svg width="23" height="24" viewBox="0 0 23 24" fill="none" xmlns="http://www.w3.org/2000/svg">
<path d="M11.3826 22.4261C16.454 22.4261 20.5652 18.3149 20.5652 13.2435C20.5652 8.17206 16.454 4.06087 11.3826 4.06087C6.31119 4.06087 2.2 8.17206 2.2 13.2435C2.2 18.3149 6.31119 22.4261 11.3826 22.4261Z" fill="white"/>
<path d="M8.8 9.4L11.3826 13.0174H15.4M8.6 1H13.887M18.8957 3.22609L21.4 5.73043M1 5.9043L3.50435 3.39995M20.5652 13.2435C20.5652 18.3149 16.454 22.4261 11.3826 22.4261C6.31119 22.4261 2.2 18.3149 2.2 13.2435C2.2 8.17206 6.31119 4.06087 11.3826 4.06087C16.454 4.06087 20.5652 8.17206 20.5652 13.2435Z" stroke="#4A332D" stroke-width="2" stroke-linecap="round" stroke-linejoin="round"/>
</svg>
