<?xml version="1.0" standalone="no"?>
<!DOCTYPE svg PUBLIC "-//W3C//DTD SVG 20010904//EN"
 "http://www.w3.org/TR/2001/REC-SVG-20010904/DTD/svg10.dtd">
<svg version="1.0" xmlns="http://www.w3.org/2000/svg"
 width="50.000000pt" height="50.000000pt" viewBox="0 0 50.000000 50.000000"
 preserveAspectRatio="xMidYMid meet">

<g transform="translate(0.000000,50.000000) scale(0.100000,-0.100000)"
fill="#4a332d" stroke="none">
<path d="M433 463 c-13 -38 -79 -123 -94 -123 -9 0 -33 11 -53 25 l-37 25 -35
-34 c-41 -39 -124 -86 -153 -86 -24 0 -37 -18 -23 -32 6 -6 21 -2 43 11 19 12
42 21 52 21 10 0 37 18 59 40 49 47 71 49 122 15 36 -24 56 -26 56 -4 0 14 56
94 82 118 11 11 17 24 13 30 -10 16 -25 13 -32 -6z"/>
<path d="M410 175 l0 -175 40 0 40 0 0 175 0 175 -40 0 -40 0 0 -175z"/>
<path d="M210 130 l0 -130 40 0 40 0 0 130 0 130 -40 0 -40 0 0 -130z"/>
<path d="M310 105 l0 -105 40 0 40 0 0 105 0 105 -40 0 -40 0 0 -105z"/>
<path d="M110 90 l0 -90 40 0 40 0 0 90 0 90 -40 0 -40 0 0 -90z"/>
<path d="M10 70 l0 -70 40 0 40 0 0 70 0 70 -40 0 -40 0 0 -70z"/>
</g>
</svg>
