<?xml version="1.0" standalone="no"?>
<!DOCTYPE svg PUBLIC "-//W3C//DTD SVG 20010904//EN"
 "http://www.w3.org/TR/2001/REC-SVG-20010904/DTD/svg10.dtd">
<svg version="1.0" xmlns="http://www.w3.org/2000/svg"
 width="48.000000pt" height="48.000000pt" viewBox="0 0 48.000000 48.000000"
 preserveAspectRatio="xMidYMid meet">

<g transform="translate(0.000000,48.000000) scale(0.100000,-0.100000)"
fill="#4a332d" stroke="none">
<path d="M220 450 c0 -23 4 -30 20 -30 23 0 27 29 8 48 -19 19 -28 14 -28 -18z"/>
<path d="M367 402 c-13 -14 -14 -21 -5 -30 15 -15 38 3 38 29 0 24 -12 24 -33
1z"/>
<path d="M70 402 c0 -5 8 -16 19 -26 15 -14 20 -14 29 -3 9 10 8 17 0 25 -14
14 -48 16 -48 4z"/>
<path d="M180 362 c-70 -38 -88 -127 -36 -189 13 -15 26 -38 30 -50 4 -14 15
-23 27 -23 16 0 19 7 19 47 0 37 -5 53 -27 75 -23 24 -25 30 -13 38 8 6 22 7
30 3 19 -8 41 -8 60 0 8 4 22 3 30 -3 12 -8 10 -14 -13 -38 -22 -22 -27 -38
-27 -75 0 -40 3 -47 19 -47 12 0 23 9 27 23 4 12 17 35 30 50 52 62 34 151
-36 189 -44 23 -76 23 -120 0z"/>
<path d="M22 258 c-19 -19 -14 -28 18 -28 23 0 30 4 30 20 0 23 -29 27 -48 8z"/>
<path d="M410 250 c0 -23 29 -27 48 -8 19 19 14 28 -18 28 -23 0 -30 -4 -30
-20z"/>
<path d="M92 128 c-14 -14 -16 -48 -4 -48 5 0 16 8 26 19 14 15 14 20 3 29
-10 9 -17 8 -25 0z"/>
<path d="M362 128 c-15 -15 3 -38 29 -38 24 0 24 12 1 33 -14 13 -21 14 -30 5z"/>
<path d="M180 35 l0 -35 48 0 c53 0 72 12 72 47 0 21 -4 23 -60 23 l-60 0 0
-35z"/>
</g>
</svg>
