<?xml version="1.0" standalone="no"?>
<!DOCTYPE svg PUBLIC "-//W3C//DTD SVG 20010904//EN"
 "http://www.w3.org/TR/2001/REC-SVG-20010904/DTD/svg10.dtd">
<svg version="1.0" xmlns="http://www.w3.org/2000/svg"
 width="64.000000pt" height="64.000000pt" viewBox="0 0 64.000000 64.000000"
 preserveAspectRatio="xMidYMid meet">

<g transform="translate(0.000000,64.000000) scale(0.100000,-0.100000)"
fill="#4a332d" stroke="none">
<path d="M127 515 c-30 -28 -35 -66 -12 -85 12 -10 24 -5 65 25 54 39 61 58
31 75 -31 16 -54 12 -84 -15z"/>
<path d="M428 529 c-29 -16 -21 -35 32 -74 41 -30 53 -35 65 -25 23 19 18 57
-12 85 -29 26 -57 31 -85 14z"/>
<path d="M256 475 c-47 -17 -94 -59 -112 -102 -19 -43 -18 -127 2 -164 11 -23
13 -34 4 -44 -6 -8 -10 -24 -8 -37 4 -27 39 -36 57 -14 11 13 17 13 46 0 19
-8 53 -14 75 -14 22 0 56 6 75 14 29 13 35 13 46 0 18 -22 53 -13 57 14 2 13
-1 29 -7 36 -8 10 -7 23 4 49 19 45 19 117 1 160 -25 62 -113 118 -181 117
-11 -1 -37 -7 -59 -15z m83 -59 c7 -9 11 -40 9 -78 l-3 -63 -64 -3 c-68 -3
-86 4 -75 31 4 12 18 17 45 17 l39 0 0 43 c0 57 24 83 49 53z"/>
</g>
</svg>
