<svg width="19" height="19" viewBox="0 0 19 19" fill="none" xmlns="http://www.w3.org/2000/svg">
<path d="M15.833 11.7432C16.8687 10.5543 17.4163 9.5 17.4163 9.5C17.4163 9.5 14.5376 3.95833 9.49967 3.95833C9.22954 3.95833 8.96561 3.97427 8.70801 4.00442C8.43709 4.03614 8.17316 4.08359 7.91634 4.14478M2.37467 2.375L5.31858 5.31891M5.31858 5.31891C2.90266 6.95968 1.58301 9.5 1.58301 9.5C1.58301 9.5 4.4618 15.0417 9.49967 15.0417C11.1266 15.0417 12.5284 14.4637 13.6808 13.6811M5.31858 5.31891L7.8203 7.82062M7.8203 7.82062C7.39051 8.25041 7.12467 8.84416 7.12467 9.5C7.12467 10.8117 8.188 11.875 9.49967 11.875C10.1555 11.875 10.7493 11.6092 11.1791 11.1794M7.8203 7.82062L11.1791 11.1794M11.1791 11.1794L13.6808 13.6811M13.6808 13.6811L16.6247 16.625" stroke="#4A332D" stroke-width="2" stroke-linecap="round" stroke-linejoin="round"/>
</svg>
