<?xml version="1.0" standalone="no"?>
<!DOCTYPE svg PUBLIC "-//W3C//DTD SVG 20010904//EN"
 "http://www.w3.org/TR/2001/REC-SVG-20010904/DTD/svg10.dtd">
<svg version="1.0" xmlns="http://www.w3.org/2000/svg"
 width="30.000000pt" height="30.000000pt" viewBox="0 0 30.000000 30.000000"
 preserveAspectRatio="xMidYMid meet">

<g transform="translate(0.000000,30.000000) scale(0.100000,-0.100000)"
fill="#4a332d" stroke="none">
<path d="M95 236 c-16 -8 -45 -30 -64 -49 l-33 -35 22 -32 c25 -35 90 -70 130
-70 40 0 105 35 130 70 l22 32 -33 35 c-57 59 -114 75 -174 49z m102 -38 c29
-27 29 -65 1 -95 -27 -29 -65 -29 -95 -1 -29 27 -29 65 -1 95 27 29 65 29 95
1z"/>
<path d="M130 164 c-11 -12 -10 -18 3 -32 16 -15 18 -15 34 0 13 14 14 20 3
32 -7 9 -16 16 -20 16 -4 0 -13 -7 -20 -16z"/>
</g>
</svg>
