<?xml version="1.0" standalone="no"?>
<!DOCTYPE svg PUBLIC "-//W3C//DTD SVG 20010904//EN"
 "http://www.w3.org/TR/2001/REC-SVG-20010904/DTD/svg10.dtd">
<svg version="1.0" xmlns="http://www.w3.org/2000/svg"
 width="512.000000pt" height="512.000000pt" viewBox="0 0 512.000000 512.000000"
 preserveAspectRatio="xMidYMid meet">

<g transform="translate(0.000000,512.000000) scale(0.100000,-0.100000)"
fill="#4a332d" stroke="none">
<path d="M710 5104 c-193 -41 -355 -196 -419 -399 -14 -44 -16 -242 -19 -1775
-2 -1155 1 -1747 8 -1792 21 -140 92 -268 191 -346 87 -70 1254 -739 1328
-762 94 -29 183 -35 271 -16 217 46 381 201 435 411 10 41 15 110 15 227 l0
167 468 3 467 3 66 26 c166 64 293 202 346 374 16 54 18 101 18 435 0 420 0
423 -73 478 -31 24 -45 27 -107 27 -63 0 -76 -3 -108 -28 -72 -55 -71 -49 -77
-464 l-5 -371 -31 -39 c-16 -21 -50 -48 -74 -61 -44 -22 -48 -22 -467 -22
l-423 0 0 1263 c0 1390 2 1329 -62 1450 -40 73 -106 148 -170 192 -27 18 -294
174 -593 346 l-543 314 1114 3 c1102 2 1115 2 1154 -18 22 -11 52 -39 67 -62
l28 -41 5 -411 c4 -357 7 -415 22 -441 19 -34 52 -67 88 -85 34 -18 119 -16
157 3 38 20 80 69 91 105 4 15 7 212 7 437 0 452 -1 457 -67 589 -42 83 -154
193 -238 234 -130 64 -75 62 -1505 61 -1077 0 -1311 -3 -1365 -15z"/>
<path d="M4060 3639 c-52 -30 -83 -81 -88 -143 -6 -74 11 -102 141 -233 l112
-113 -695 0 c-782 0 -746 3 -806 -76 -25 -33 -29 -46 -29 -104 0 -78 26 -125
86 -159 36 -21 49 -21 740 -21 l703 0 -112 -113 c-61 -63 -118 -130 -127 -150
-20 -49 -19 -110 4 -155 23 -46 46 -67 94 -87 48 -20 93 -19 142 4 56 26 600
575 611 616 13 48 9 107 -11 145 -22 43 -513 540 -574 581 -56 37 -136 40
-191 8z"/>
</g>
</svg>
