<?xml version="1.0" standalone="no"?>
<!DOCTYPE svg PUBLIC "-//W3C//DTD SVG 20010904//EN"
 "http://www.w3.org/TR/2001/REC-SVG-20010904/DTD/svg10.dtd">
<svg version="1.0" xmlns="http://www.w3.org/2000/svg"
 width="64.000000pt" height="64.000000pt" viewBox="0 0 64.000000 64.000000"
 preserveAspectRatio="xMidYMid meet">

<g transform="translate(0.000000,64.000000) scale(0.100000,-0.100000)"
fill="#4a332d" stroke="none">
<path d="M147 604 c-4 -4 -7 -20 -7 -36 l0 -28 181 0 180 0 -3 33 -3 32 -171
3 c-93 1 -173 -1 -177 -4z"/>
<path d="M140 285 l0 -236 90 61 90 61 90 -61 90 -61 0 236 0 235 -180 0 -180
0 0 -235z m151 112 c-7 -7 -7 -15 0 -23 8 -10 4 -13 -18 -12 -21 1 -28 6 -29
23 -1 18 4 22 27 22 20 0 26 -4 20 -10z m105 -12 c-2 -32 -51 -33 -51 -1 0 18
6 23 26 23 21 0 26 -5 25 -22z m-48 -76 c17 -6 33 -17 36 -26 10 -24 -2 -29
-18 -8 -18 24 -74 24 -92 0 -16 -21 -28 -16 -18 8 3 9 18 20 32 26 15 5 27 10
28 10 1 1 15 -4 32 -10z"/>
</g>
</svg>
