<?xml version="1.0" standalone="no"?>
<!DOCTYPE svg PUBLIC "-//W3C//DTD SVG 20010904//EN"
 "http://www.w3.org/TR/2001/REC-SVG-20010904/DTD/svg10.dtd">
<svg version="1.0" xmlns="http://www.w3.org/2000/svg"
 width="225.000000pt" height="225.000000pt" viewBox="0 0 225.000000 225.000000"
 preserveAspectRatio="xMidYMid meet">

<g transform="translate(0.000000,225.000000) scale(0.100000,-0.100000)"
fill="#ffffff" stroke="none">
<path d="M800 2221 c-128 -29 -222 -70 -342 -147 l-68 -44 0 31 c0 41 -23 93
-51 113 -48 33 -134 12 -157 -39 -8 -17 -12 -92 -12 -225 l0 -200 29 -32 29
-33 216 0 216 0 25 26 c30 29 41 82 26 121 -15 40 -66 68 -126 68 l-50 0 25
21 c40 32 200 106 265 124 205 54 445 16 631 -100 178 -111 305 -291 358 -506
l22 -93 53 -17 c29 -10 77 -33 108 -50 l56 -32 -6 99 c-25 433 -349 809 -790
914 -108 26 -346 27 -457 1z"/>
<path d="M964 1752 c-41 -33 -44 -51 -44 -314 0 -277 1 -282 60 -313 16 -8 52
-15 80 -15 47 0 55 4 114 54 61 52 212 136 245 136 13 1 13 3 -3 15 -15 11
-51 15 -147 15 l-128 0 -3 191 -3 191 -33 29 c-38 34 -103 40 -138 11z"/>
<path d="M43 1405 l-35 -35 5 -172 c3 -119 9 -192 21 -233 83 -298 272 -529
541 -660 129 -63 243 -95 373 -102 l93 -6 -34 64 c-19 35 -42 84 -51 109 l-17
46 -91 21 c-215 52 -386 174 -503 359 -87 137 -133 317 -122 473 8 119 -25
171 -106 171 -31 0 -46 -7 -74 -35z"/>
<path d="M1545 1214 c-90 -22 -117 -31 -170 -56 -158 -77 -267 -206 -323 -382
-24 -75 -23 -263 2 -336 71 -210 220 -357 421 -416 70 -20 233 -23 310 -5 205
48 397 240 446 446 18 76 15 239 -5 310 -76 259 -295 430 -561 440 -55 2 -109
2 -120 -1z m-4 -421 l99 -97 99 97 c62 62 106 97 120 97 26 0 61 -33 61 -58 0
-9 -45 -62 -100 -117 l-99 -99 99 -102 c105 -108 115 -129 80 -164 -35 -35
-56 -25 -164 80 l-102 99 -99 -99 c-55 -55 -107 -100 -115 -100 -28 0 -60 30
-60 57 0 19 25 51 97 124 l97 99 -97 99 c-101 102 -113 127 -80 163 33 36 60
23 164 -79z"/>
</g>
</svg>
