<?xml version="1.0" standalone="no"?>
<!DOCTYPE svg PUBLIC "-//W3C//DTD SVG 20010904//EN"
 "http://www.w3.org/TR/2001/REC-SVG-20010904/DTD/svg10.dtd">
<svg version="1.0" xmlns="http://www.w3.org/2000/svg"
 width="256.000000pt" height="256.000000pt" viewBox="0 0 256.000000 256.000000"
 preserveAspectRatio="xMidYMid meet">

<g transform="translate(0.000000,256.000000) scale(0.100000,-0.100000)"
fill="#4a332d" stroke="none">
<path d="M1223 2380 c-38 -23 -63 -67 -63 -110 l0 -30 -88 0 c-55 0 -92 -4
-100 -12 -16 -16 -16 -200 0 -216 9 -9 91 -12 308 -12 217 0 299 3 308 12 16
16 16 200 0 216 -8 8 -45 12 -100 12 l-88 0 0 34 c0 18 -10 48 -23 67 -40 60
-97 74 -154 39z"/>
<path d="M564 2108 c-12 -5 -27 -21 -33 -34 -16 -35 -16 -1833 0 -1867 6 -14
22 -30 36 -36 34 -16 1392 -16 1426 0 14 6 30 22 36 36 16 34 16 1832 0 1866
-18 40 -50 47 -204 47 l-145 0 0 -56 c0 -64 -19 -103 -60 -128 -24 -14 -69
-16 -340 -16 -271 0 -316 2 -340 16 -41 25 -60 64 -60 128 l0 56 -147 -1 c-82
0 -158 -5 -169 -11z m1276 -1008 l0 -740 -560 0 -560 0 0 740 0 740 560 0 560
0 0 -740z"/>
<path d="M976 1394 c-23 -22 -20 -36 14 -69 l30 -29 -31 -32 c-23 -24 -29 -38
-24 -53 9 -30 55 -28 85 4 l23 24 34 -29 c28 -25 38 -28 53 -20 27 15 25 52
-5 80 l-25 24 26 27 c29 30 29 65 2 83 -14 8 -24 4 -51 -22 l-33 -32 -29 30
c-33 34 -47 37 -69 14z"/>
<path d="M1392 1398 c-19 -19 -14 -53 13 -78 l25 -24 -25 -26 c-30 -31 -32
-65 -5 -80 15 -8 25 -5 53 20 l34 29 23 -24 c30 -32 76 -34 85 -4 5 15 -1 29
-19 48 -32 34 -32 42 -1 71 30 28 32 55 6 70 -27 14 -26 14 -64 -20 l-34 -29
-28 29 c-31 33 -45 36 -63 18z"/>
<path d="M1159 1001 c-64 -25 -117 -68 -151 -120 -33 -52 -33 -55 -12 -75 25
-25 40 -19 76 32 103 143 309 143 414 0 38 -51 53 -57 78 -32 21 21 21 23 -14
75 -34 52 -100 103 -161 124 -57 21 -173 18 -230 -4z"/>
</g>
</svg>
