<?xml version="1.0" standalone="no"?>
<!DOCTYPE svg PUBLIC "-//W3C//DTD SVG 20010904//EN"
 "http://www.w3.org/TR/2001/REC-SVG-20010904/DTD/svg10.dtd">
<svg version="1.0" xmlns="http://www.w3.org/2000/svg"
 width="64.000000pt" height="64.000000pt" viewBox="0 0 64.000000 64.000000"
 preserveAspectRatio="xMidYMid meet">

<g transform="translate(0.000000,64.000000) scale(0.100000,-0.100000)"
fill="#4a332d" stroke="none">
<path d="M390 524 c-61 -17 -125 -51 -154 -83 -11 -12 -36 -26 -56 -31 -45
-12 -87 -51 -95 -90 -9 -40 0 -50 43 -50 32 0 45 -8 90 -53 44 -44 52 -59 52
-89 0 -47 12 -54 64 -34 41 16 76 57 76 89 0 8 18 37 40 63 52 64 82 142 83
224 l2 65 -45 2 c-25 1 -70 -5 -100 -13z m20 -119 c6 -8 9 -23 5 -35 -10 -31
-59 -24 -63 9 -6 37 34 55 58 26z"/>
<path d="M132 195 c-7 -14 -12 -37 -12 -50 0 -20 5 -25 25 -25 57 0 97 41 47
48 -12 2 -22 12 -24 24 -4 31 -23 32 -36 3z"/>
</g>
</svg>
