<?xml version="1.0" standalone="no"?>
<!DOCTYPE svg PUBLIC "-//W3C//DTD SVG 20010904//EN"
 "http://www.w3.org/TR/2001/REC-SVG-20010904/DTD/svg10.dtd">
<svg version="1.0" xmlns="http://www.w3.org/2000/svg"
 width="50.000000pt" height="50.000000pt" viewBox="0 0 50.000000 50.000000"
 preserveAspectRatio="xMidYMid meet">

<g transform="translate(0.000000,50.000000) scale(0.100000,-0.100000)"
fill="#4a332d" stroke="none">
<path d="M179 467 c-57 -21 -97 -54 -126 -105 -23 -38 -28 -59 -28 -113 0 -56
5 -73 30 -115 19 -30 49 -60 79 -79 42 -25 59 -30 116 -30 57 0 74 5 116 30
71 44 109 110 109 189 0 80 -20 129 -49 120 -39 -12 -46 -25 -34 -69 31 -115
-60 -213 -177 -191 -21 4 -50 21 -70 41 -60 60 -60 150 0 210 41 40 91 53 150
37 44 -12 57 -5 69 34 5 16 0 24 -21 33 -42 19 -123 23 -164 8z"/>
<path d="M403 438 c-13 -13 -23 -28 -23 -33 0 -5 -32 -42 -72 -82 -40 -40 -69
-76 -65 -80 4 -4 40 25 80 65 40 40 77 72 83 72 6 0 21 11 34 25 19 20 20 25
7 25 -8 0 -17 7 -19 16 -2 13 -7 11 -25 -8z"/>
<path d="M210 327 c-52 -26 -62 -104 -19 -143 13 -11 36 -19 59 -19 45 0 76
24 85 66 11 47 -4 54 -40 19 -60 -58 -104 -16 -46 44 42 44 19 63 -39 33z"/>
</g>
</svg>
