<svg width="23" height="20" viewBox="0 0 23 20" fill="none" xmlns="http://www.w3.org/2000/svg">
<path d="M2 8C2 7.33726 2.53726 6.8 3.2 6.8H6.8C7.46274 6.8 8 7.33726 8 8V11.6C8 12.2627 7.46274 12.8 6.8 12.8H3.2C2.53726 12.8 2 12.2627 2 11.6V8Z" fill="#4A332D"/>
<path d="M2 2L21.2 2M12.8 7.2L21.2 7.2M12.8 12.4L21.2 12.4M2 17.6H21.2M3.2 12.8H6.8C7.46274 12.8 8 12.2627 8 11.6V8C8 7.33726 7.46274 6.8 6.8 6.8H3.2C2.53726 6.8 2 7.33726 2 8V11.6C2 12.2627 2.53726 12.8 3.2 12.8Z" stroke="#4A332D" stroke-width="3" stroke-linecap="round" stroke-linejoin="round"/>
</svg>
