<?xml version="1.0" standalone="no"?>
<!DOCTYPE svg PUBLIC "-//W3C//DTD SVG 20010904//EN"
 "http://www.w3.org/TR/2001/REC-SVG-20010904/DTD/svg10.dtd">
<svg version="1.0" xmlns="http://www.w3.org/2000/svg"
 width="32.000000pt" height="32.000000pt" viewBox="0 0 32.000000 32.000000"
 preserveAspectRatio="xMidYMid meet">

<g transform="translate(0.000000,32.000000) scale(0.100000,-0.100000)"
fill="#4a332d" stroke="none">
<path d="M123 211 c-35 -38 -63 -72 -63 -75 0 -3 16 -6 35 -6 l34 0 -15 -42
c-8 -22 -12 -43 -10 -46 6 -5 156 130 156 141 0 4 -18 7 -41 7 -34 0 -40 3
-35 18 14 47 17 72 10 72 -5 0 -37 -31 -71 -69z"/>
</g>
</svg>
