<?xml version="1.0" standalone="no"?>
<!DOCTYPE svg PUBLIC "-//W3C//DTD SVG 20010904//EN"
 "http://www.w3.org/TR/2001/REC-SVG-20010904/DTD/svg10.dtd">
<svg version="1.0" xmlns="http://www.w3.org/2000/svg"
 width="512.000000pt" height="512.000000pt" viewBox="0 0 512.000000 512.000000"
 preserveAspectRatio="xMidYMid meet">

<g transform="translate(0.000000,512.000000) scale(0.100000,-0.100000)"
fill="#4a332d" stroke="none">
<path d="M2499 4405 c-322 -52 -587 -191 -810 -422 -97 -101 -159 -185 -219
-296 -37 -68 -46 -78 -64 -72 -133 38 -286 43 -406 10 -79 -21 -207 -87 -266
-137 -115 -98 -208 -246 -238 -378 -22 -97 -21 -258 3 -343 l19 -68 -60 -40
c-145 -99 -269 -242 -348 -404 -59 -120 -85 -212 -102 -352 -52 -455 231 -943
652 -1124 179 -76 138 -73 888 -77 l672 -3 -2 553 -3 553 -208 5 -209 5 -29
33 c-21 24 -29 42 -29 71 0 34 15 59 103 183 471 654 613 847 642 876 42 39
97 44 138 12 14 -11 189 -246 389 -523 355 -491 363 -503 363 -549 0 -39 -5
-53 -28 -75 l-27 -28 -208 -5 -207 -5 -3 -552 -2 -553 569 0 c625 0 661 3 827
61 405 141 708 493 800 929 22 105 25 332 5 440 -30 167 -101 344 -199 495
-66 100 -239 271 -343 339 -123 79 -271 141 -409 170 -24 5 -27 12 -42 104
-98 571 -539 1032 -1103 1152 -131 28 -383 35 -506 15z"/>
</g>
</svg>
