<?xml version="1.0" standalone="no"?>
<!DOCTYPE svg PUBLIC "-//W3C//DTD SVG 20010904//EN"
 "http://www.w3.org/TR/2001/REC-SVG-20010904/DTD/svg10.dtd">
<svg version="1.0" xmlns="http://www.w3.org/2000/svg"
 width="50.000000pt" height="50.000000pt" viewBox="0 0 50.000000 50.000000"
 preserveAspectRatio="xMidYMid meet">

<g transform="translate(0.000000,50.000000) scale(0.100000,-0.100000)"
fill="#4a332d" stroke="none">
<path d="M40 260 l0 -240 104 0 c61 0 106 -4 108 -10 2 -7 15 -7 38 0 39 11
210 174 210 200 0 20 -19 40 -39 40 -8 0 -25 -10 -38 -22 l-23 -21 0 74 0 74
-72 72 -72 73 -108 0 -108 0 0 -240z m275 150 l59 -60 -62 0 -62 0 0 60 c0 33
1 60 3 60 1 0 29 -27 62 -60z m15 -110 c0 -6 -43 -10 -110 -10 -67 0 -110 4
-110 10 0 6 43 10 110 10 67 0 110 -4 110 -10z m0 -60 c0 -6 -43 -10 -110 -10
-67 0 -110 4 -110 10 0 6 43 10 110 10 67 0 110 -4 110 -10z m68 -127 c-68
-69 -73 -72 -90 -56 -18 16 -16 20 54 90 68 69 73 72 90 56 18 -16 16 -20 -54
-90z m-68 67 c0 -6 -43 -10 -110 -10 -67 0 -110 4 -110 10 0 6 43 10 110 10
67 0 110 -4 110 -10z m-90 -60 c0 -6 -28 -10 -65 -10 -37 0 -65 4 -65 10 0 6
28 10 65 10 37 0 65 -4 65 -10z m55 -80 c3 -5 1 -10 -4 -10 -6 0 -11 5 -11 10
0 6 2 10 4 10 3 0 8 -4 11 -10z"/>
</g>
</svg>
